<svg width="25" height="25" viewBox="0 0 25 25" fill="none" xmlns="http://www.w3.org/2000/svg">
<path d="M17.6371 1.93964L14.8598 1.93506C11.7396 1.93506 9.72325 4.06015 9.72325 7.34929V9.84561H6.93084C6.68954 9.84561 6.49414 10.0466 6.49414 10.2944V13.9113C6.49414 14.1592 6.68976 14.3599 6.93084 14.3599H9.72325V23.4865C9.72325 23.7343 9.91865 23.9351 10.1599 23.9351H13.8033C14.0446 23.9351 14.24 23.7341 14.24 23.4865V14.3599H17.5049C17.7462 14.3599 17.9416 14.1592 17.9416 13.9113L17.943 10.2944C17.943 10.1754 17.8968 10.0614 17.8151 9.97721C17.7333 9.89299 17.6219 9.84561 17.506 9.84561H14.24V7.72945C14.24 6.71233 14.4759 6.196 15.7657 6.196L17.6366 6.19531C17.8777 6.19531 18.0731 5.99436 18.0731 5.74672V2.38823C18.0731 2.14082 17.8779 1.94009 17.6371 1.93964Z" fill="#251E1E"/>
</svg>
