<svg width="17" height="17" viewBox="0 0 17 17" fill="none" xmlns="http://www.w3.org/2000/svg">
<g clip-path="url(#clip0_2907_28)">
<path d="M6.46484 8.29578H7.41016V10.1825H6.46484V8.29578Z" fill="white"/>
<path d="M10.6865 16.7684H16.0226V12.9347H10.6865V16.7684ZM12.8858 14.3828H13.8233V15.3203H12.8858V14.3828Z" fill="white"/>
<path d="M7.82028 3.02481L13.3548 6.18737C13.5116 6.27696 13.6776 6.31787 13.8393 6.31787C14.3512 6.31787 14.8203 5.9084 14.8203 5.33687V4.76843L7.82031 0.768433L0.820312 4.76843V5.3369C0.820312 5.90837 1.28947 6.3179 1.80128 6.3179C1.96306 6.3179 2.12903 6.27703 2.28588 6.1874L7.82028 3.02481Z" fill="white"/>
<path d="M8.34766 8.29578H9.29298V10.1825H8.34766V8.29578Z" fill="white"/>
<path d="M9.74951 11.9973H11.0035V11.8271C11.0035 10.5304 12.0584 9.47549 13.355 9.47549V10.413C12.5753 10.413 11.941 11.0473 11.941 11.8271V11.9973H13.355V10.413C14.1348 10.413 14.7691 11.0473 14.7691 11.8271V11.9973H15.7066V11.8271C15.7066 10.5304 14.6517 9.47549 13.355 9.47549V7.19199C13.1934 7.14924 7.82057 4.10461 7.82057 4.10461C7.82057 4.10461 2.44773 7.14927 2.28613 7.19199V14.7662H9.74951V11.9973ZM5.52763 7.3583H10.2308V11.12H5.52763V7.3583Z" fill="white"/>
</g>
<defs>
<clipPath id="clip0_2907_28">
<rect width="16" height="16" fill="white" transform="translate(0.421387 0.768433)"/>
</clipPath>
</defs>
</svg>
