<svg width="33" height="33" viewBox="0 0 33 33" fill="none" xmlns="http://www.w3.org/2000/svg">
<g clip-path="url(#clip0_2907_5)">
<path d="M12.7866 15.8231H14.6772V19.5966H12.7866V15.8231Z" fill="white"/>
<path d="M21.23 32.7684H31.9022V25.1011H21.23V32.7684ZM25.6285 27.9973H27.5035V29.8723H25.6285V27.9973Z" fill="white"/>
<path d="M15.4975 5.28118L26.5664 11.6063C26.8801 11.7855 27.2121 11.8673 27.5356 11.8673C28.5593 11.8673 29.4976 11.0484 29.4976 9.90531V8.76843L15.4976 0.768433L1.49756 8.76843V9.90537C1.49756 11.0483 2.43587 11.8674 3.4595 11.8674C3.78306 11.8674 4.115 11.7856 4.42868 11.6064L15.4975 5.28118Z" fill="white"/>
<path d="M16.5522 15.8231H18.4429V19.5966H16.5522V15.8231Z" fill="white"/>
<path d="M19.3555 23.226H21.8634V22.8855C21.8634 20.2922 23.9732 18.1824 26.5665 18.1824V20.0574C25.0071 20.0574 23.7384 21.3261 23.7384 22.8855V23.226H26.5665V20.0574C28.126 20.0574 29.3946 21.3261 29.3946 22.8855V23.226H31.2696V22.8855C31.2696 20.2922 29.1598 18.1824 26.5665 18.1824V13.6154C26.2433 13.5299 15.4976 7.44067 15.4976 7.44067C15.4976 7.44067 4.7519 13.53 4.42871 13.6154V28.7639H19.3555V23.226ZM10.9117 13.948H20.318V21.4715H10.9117V13.948Z" fill="white"/>
</g>
<defs>
<clipPath id="clip0_2907_5">
<rect width="32" height="32" fill="white" transform="translate(0.700195 0.768433)"/>
</clipPath>
</defs>
</svg>
