<svg width="25" height="25" viewBox="0 0 25 25" fill="none" xmlns="http://www.w3.org/2000/svg">
<path d="M22.5742 6.70739C21.8013 7.03533 20.972 7.25773 20.1006 7.35702C20.9903 6.84687 21.6714 6.03769 21.9942 5.07645C21.1596 5.54889 20.2384 5.89194 19.2568 6.0779C18.4708 5.275 17.3527 4.7749 16.1126 4.7749C13.7335 4.7749 11.8045 6.62197 11.8045 8.89876C11.8045 9.22166 11.8425 9.53705 11.916 9.83863C8.33623 9.66647 5.1619 8.02423 3.03736 5.52878C2.66598 6.13695 2.45471 6.84558 2.45471 7.60203C2.45471 9.0332 3.21582 10.296 4.37062 11.0348C3.66461 11.0122 3.00061 10.8262 2.4193 10.5171V10.5686C2.4193 12.5665 3.90478 14.2338 5.87446 14.6133C5.51358 14.7063 5.13304 14.7578 4.73936 14.7578C4.46117 14.7578 4.19215 14.7314 3.92838 14.6812C4.47689 16.3209 6.06737 17.5133 7.95178 17.546C6.4781 18.6518 4.61994 19.3089 2.60171 19.3089C2.25397 19.3089 1.91145 19.2888 1.57422 19.2524C3.48093 20.4247 5.74458 21.1082 8.17749 21.1082C16.1022 21.1082 20.434 14.8232 20.434 9.37247L20.4195 8.83846C21.2659 8.26043 21.9981 7.53418 22.5742 6.70739Z" fill="#251E1E"/>
</svg>
